# Rhino

v 0.6483231782913208 -5.0192470550537109 -0.39093124866485596
v 0.6483231782913208 -5.0192470550537109 0.003886357881128788
v 3.0867230892181396 -5.0192470550537109 -0.39093124866485596
v 3.0867230892181396 -5.0192470550537109 0.003886357881128788
v 3.0867230892181396 -5.0192470550537109 -0.39093124866485596
v 3.0867230892181396 -5.0192470550537109 0.003886357881128788
v 3.0867230892181396 -0.63502466678619385 -0.39093124866485596
v 3.0867230892181396 -0.63502466678619385 0.003886357881128788
v 3.0867230892181396 -0.63502466678619385 -0.39093124866485596
v 3.0867230892181396 -0.63502466678619385 0.003886357881128788
v 0.6483231782913208 -0.63502466678619385 -0.39093124866485596
v 0.6483231782913208 -0.63502466678619385 0.003886357881128788
v 0.6483231782913208 -0.63502466678619385 -0.39093124866485596
v 0.6483231782913208 -0.63502466678619385 0.003886357881128788
v 0.6483231782913208 -5.0192470550537109 -0.39093124866485596
v 0.6483231782913208 -5.0192470550537109 0.003886357881128788
v 0.6483231782913208 -5.0192470550537109 -0.39093124866485596
v 3.0867230892181396 -5.0192470550537109 -0.39093124866485596
v 3.0867230892181396 -0.63502466678619385 -0.39093124866485596
v 0.6483231782913208 -0.63502466678619385 -0.39093124866485596
v 0.6483231782913208 -5.0192470550537109 0.003886357881128788
v 3.0867230892181396 -5.0192470550537109 0.003886357881128788
v 3.0867230892181396 -0.63502466678619385 0.003886357881128788
v 0.6483231782913208 -0.63502466678619385 0.003886357881128788
vt 0 0
vt 0 0.53744721412658691
vt 0.17869961261749268 0
vt 0.17869961261749268 0.53744721412658691
vt 0.17869961261749268 0
vt 0.17869961261749268 0.53744721412658691
vt 0.5 0
vt 0.5 0.53744721412658691
vt 0.5 0
vt 0.5 0.53744721412658691
vt 0.67869961261749268 0
vt 0.67869961261749268 0.53744721412658691
vt 0.67869961261749268 0
vt 0.67869961261749268 0.53744721412658691
vt 1 0
vt 1 0.53744721412658691
vt 0.32130038738250732 1
vt 0.32130038738250732 0.53744775056838989
vt 0 0.53744775056838989
vt 0 1
vt 1 0.53744775056838989
vt 1 1
vt 0.67869961261749268 1
vt 0.67869961261749268 0.53744775056838989
vn 0 -1 0
vn 0 -1 0
vn 0 -1 0
vn 0 -1 0
vn 1 0 0
vn 1 0 0
vn 1 0 0
vn 1 0 0
vn 0 1 0
vn 0 1 0
vn 0 1 0
vn 0 1 0
vn -1 0 0
vn -1 0 0
vn -1 0 0
vn -1 0 0
vn 0 0 -1
vn 0 0 -1
vn 0 0 -1
vn 0 0 -1
vn 0 0 1
vn 0 0 1
vn 0 0 1
vn 0 0 1
f 18/18/18 17/17/17 20/20/20 19/19/19
f 24/24/24 21/21/21 22/22/22 23/23/23
f 1/1/1 3/3/3 4/4/4 2/2/2
f 5/5/5 7/7/7 8/8/8 6/6/6
f 9/9/9 11/11/11 12/12/12 10/10/10
f 13/13/13 15/15/15 16/16/16 14/14/14
